<svg xmlns="http://www.w3.org/2000/svg" xmlns:xlink="http://www.w3.org/1999/xlink" preserveAspectRatio="xMidYMid" width="66" height="66" viewBox="0 0 66 66">
  <defs>
    <style>
      .cls-1 {
        fill: url(#linear-gradient-1);
        fill-rule: evenodd;
      }
    </style>

    <linearGradient id="linear-gradient-1" gradientUnits="userSpaceOnUse" x1="53.366" y1="62" x2="12.634" y2="5.938">
      <stop offset="0" stop-color="#4cf3ce"/>
      <stop offset="1" stop-color="#f042f6"/>
    </linearGradient>
  </defs>
  <path d="M52.999,59.538 L41.999,59.538 C38.805,59.538 35.902,61.945 33.752,61.945 C33.526,61.945 33.311,61.908 33.102,61.850 C32.832,61.957 32.547,62.007 32.246,62.007 C30.096,62.007 27.193,59.601 23.999,59.601 L12.999,59.601 C6.372,59.601 0.999,54.267 0.999,47.688 L0.999,17.906 C0.999,11.326 6.372,5.992 12.999,5.992 L19.999,5.992 C25.347,5.992 30.070,8.607 32.976,12.609 C35.877,8.572 40.622,5.930 45.999,5.930 L52.999,5.930 C59.626,5.930 64.999,11.264 64.999,17.843 L64.999,47.625 C64.999,54.205 59.626,59.538 52.999,59.538 ZM36.000,22.000 C36.000,20.343 34.657,19.000 33.000,19.000 C31.343,19.000 30.000,20.343 30.000,22.000 L30.000,48.000 C30.000,49.657 31.343,51.000 33.000,51.000 C34.657,51.000 36.000,49.657 36.000,48.000 L36.000,22.000 Z" class="cls-1"/>
</svg>
