<svg xmlns="http://www.w3.org/2000/svg" xmlns:xlink="http://www.w3.org/1999/xlink" preserveAspectRatio="xMidYMid" width="66" height="66" viewBox="0 0 66 66">
  <defs>
    <style>
      .cls-1 {
        fill: #262626;
        fill-rule: evenodd;
      }
    </style>
  </defs>
  <path d="M53.000,59.538 L42.000,59.538 C38.806,59.538 35.903,61.945 33.753,61.945 C33.527,61.945 33.312,61.909 33.103,61.850 C32.833,61.957 32.547,62.007 32.247,62.007 C30.097,62.007 27.194,59.601 24.000,59.601 L13.000,59.601 C6.373,59.601 1.000,54.268 1.000,47.688 L1.000,17.906 C1.000,11.326 6.373,5.993 13.000,5.993 L20.000,5.993 C25.348,5.993 30.071,8.608 32.976,12.610 C35.877,8.572 40.623,5.931 46.000,5.931 L53.000,5.931 C59.627,5.931 65.000,11.264 65.000,17.843 L65.000,47.625 C65.000,54.205 59.627,59.538 53.000,59.538 ZM20.000,11.949 L13.000,11.949 C9.691,11.949 7.000,14.621 7.000,17.906 L7.000,47.688 C7.000,50.972 9.691,53.645 13.000,53.645 L24.000,53.645 C26.197,53.645 28.121,54.223 29.708,54.845 C29.869,53.324 30.000,51.053 30.000,47.688 L30.000,47.625 L30.000,21.877 C30.000,16.403 25.514,11.949 20.000,11.949 ZM59.000,17.843 C59.000,14.559 56.308,11.887 53.000,11.887 L46.000,11.887 C40.486,11.887 36.000,16.340 36.000,21.814 L36.000,21.877 L36.000,47.625 C36.000,50.990 36.131,53.262 36.291,54.782 C37.879,54.161 39.802,53.582 42.000,53.582 L53.000,53.582 C56.308,53.582 59.000,50.910 59.000,47.625 L59.000,17.843 Z" class="cls-1"/>
</svg>
