<svg xmlns="http://www.w3.org/2000/svg" xmlns:xlink="http://www.w3.org/1999/xlink" preserveAspectRatio="xMidYMid" width="66" height="66" viewBox="0 0 66 66">
  <defs>
    <style>
      .cls-1 {
        fill: url(#linear-gradient-1);
        fill-rule: evenodd;
      }
    </style>

    <linearGradient id="linear-gradient-1" gradientUnits="userSpaceOnUse" x1="56.976" y1="66" x2="9.024">
      <stop offset="0" stop-color="#4cf3ce"/>
      <stop offset="1" stop-color="#f042f6"/>
    </linearGradient>
  </defs>
  <path d="M33.000,66.000 C14.775,66.000 -0.000,51.225 -0.000,33.000 C-0.000,14.775 14.775,-0.000 33.000,-0.000 C51.225,-0.000 66.000,14.775 66.000,33.000 C66.000,51.225 51.225,66.000 33.000,66.000 ZM45.250,20.398 C43.419,18.602 40.674,17.904 37.714,18.485 L31.001,19.801 L31.000,19.801 C25.745,20.833 20.805,25.677 19.754,30.831 L18.411,37.415 C17.820,40.315 18.530,43.008 20.361,44.804 C21.769,46.185 23.720,46.916 25.891,46.916 C26.543,46.916 27.214,46.850 27.897,46.716 L34.611,45.400 C39.866,44.370 44.806,39.524 45.857,34.371 L47.200,27.787 C47.792,24.886 47.082,22.193 45.250,20.398 ZM39.894,33.202 C39.319,36.020 36.293,38.989 33.418,39.553 L26.705,40.869 C25.790,41.047 25.025,40.943 24.661,40.587 C24.299,40.231 24.192,39.483 24.375,38.584 L25.718,32.000 C26.292,29.182 29.319,26.214 32.194,25.650 L38.906,24.333 C39.825,24.154 40.587,24.259 40.951,24.615 C41.313,24.970 41.421,25.719 41.238,26.617 L39.894,33.202 Z" class="cls-1"/>
</svg>
