<svg xmlns="http://www.w3.org/2000/svg" xmlns:xlink="http://www.w3.org/1999/xlink" preserveAspectRatio="xMidYMid" width="66" height="66" viewBox="0 0 66 66">
  <defs>
    <style>
      .cls-1 {
        fill: #262626;
        fill-rule: evenodd;
      }
    </style>
  </defs>
  <path d="M33.000,66.000 C14.775,66.000 -0.000,51.225 -0.000,33.000 C-0.000,14.775 14.775,-0.000 33.000,-0.000 C51.225,-0.000 66.000,14.775 66.000,33.000 C66.000,51.225 51.225,66.000 33.000,66.000 ZM33.000,6.000 C18.088,6.000 6.000,18.088 6.000,33.000 C6.000,47.911 18.088,60.000 33.000,60.000 C47.911,60.000 60.000,47.911 60.000,33.000 C60.000,18.088 47.911,6.000 33.000,6.000 ZM45.857,34.371 C44.806,39.524 39.866,44.370 34.611,45.400 L27.897,46.716 C27.214,46.850 26.543,46.916 25.891,46.916 C23.720,46.916 21.769,46.185 20.361,44.804 C18.530,43.008 17.820,40.315 18.411,37.415 L19.754,30.831 C20.805,25.677 25.745,20.833 31.000,19.801 L31.001,19.801 L37.714,18.485 C40.674,17.904 43.419,18.602 45.250,20.398 C47.082,22.193 47.792,24.886 47.200,27.787 L45.857,34.371 ZM40.951,24.615 C40.587,24.259 39.825,24.154 38.906,24.333 L32.194,25.650 C29.319,26.214 26.292,29.182 25.718,32.000 L24.375,38.584 C24.192,39.483 24.299,40.231 24.661,40.587 C25.025,40.943 25.790,41.047 26.705,40.869 L33.418,39.553 C36.293,38.989 39.319,36.020 39.894,33.202 L41.238,26.617 C41.421,25.719 41.313,24.970 40.951,24.615 Z" class="cls-1"/>
</svg>
