<svg xmlns="http://www.w3.org/2000/svg" xmlns:xlink="http://www.w3.org/1999/xlink" preserveAspectRatio="xMidYMid" width="66" height="66" viewBox="0 0 66 66">
  <defs>
    <style>
      .cls-1 {
        fill: #262626;
        fill-rule: evenodd;
      }
    </style>
  </defs>
  <path d="M61.990,51.102 L61.990,57.000 C61.990,61.418 58.409,65.000 53.992,65.000 L43.347,65.000 C40.131,65.636 36.654,66.000 33.005,66.000 C29.357,66.000 25.880,65.636 22.663,65.000 L11.999,65.000 C7.581,65.000 4.000,61.418 4.000,57.000 L4.000,51.000 C4.000,49.519 4.410,48.136 5.111,46.946 C8.533,40.634 19.711,36.000 33.005,36.000 C46.426,36.000 57.685,40.724 60.989,47.128 C61.076,47.284 61.152,47.446 61.228,47.608 C61.317,47.806 61.405,48.004 61.479,48.205 C61.622,48.589 61.745,48.982 61.828,49.391 C61.847,49.481 61.854,49.572 61.870,49.662 C61.932,50.030 61.970,50.406 61.980,50.789 C61.982,50.860 62.000,50.929 62.000,51.000 C62.000,51.034 61.991,51.068 61.990,51.102 ZM55.991,51.149 C55.988,51.086 55.985,51.019 55.983,50.950 C55.980,50.853 55.971,50.759 55.954,50.661 C55.947,50.617 55.939,50.569 55.932,50.519 C55.918,50.472 55.895,50.402 55.859,50.304 C55.830,50.230 55.801,50.168 55.774,50.108 C55.756,50.069 55.739,50.032 55.721,49.996 C55.692,49.944 55.686,49.933 55.658,49.880 C53.970,46.608 45.826,42.000 33.005,42.000 C21.495,42.000 12.465,45.969 10.385,49.806 C10.351,49.870 10.315,49.933 10.278,49.995 C10.093,50.309 9.999,50.647 9.999,51.000 L9.999,57.000 C9.999,58.103 10.896,59.000 11.999,59.000 L22.663,59.000 C23.054,59.000 23.444,59.038 23.828,59.114 C26.798,59.702 29.886,60.000 33.005,60.000 C36.124,60.000 39.212,59.702 42.182,59.114 C42.566,59.038 42.956,59.000 43.347,59.000 L53.992,59.000 C55.094,59.000 55.991,58.103 55.991,57.000 L55.991,51.149 ZM34.000,32.000 C25.163,32.000 18.000,24.837 18.000,16.000 C18.000,7.163 25.163,-0.000 34.000,-0.000 L38.000,-0.000 C44.627,-0.000 50.000,5.372 50.000,12.000 L50.000,16.000 C50.000,24.837 42.836,32.000 34.000,32.000 ZM44.000,12.000 C44.000,8.691 41.308,6.000 38.000,6.000 L34.000,6.000 C28.486,6.000 24.000,10.486 24.000,16.000 C24.000,21.514 28.486,26.000 34.000,26.000 C39.514,26.000 44.000,21.514 44.000,16.000 L44.000,12.000 Z" class="cls-1"/>
</svg>
