<svg xmlns="http://www.w3.org/2000/svg" xmlns:xlink="http://www.w3.org/1999/xlink" preserveAspectRatio="xMidYMid" width="66" height="66" viewBox="0 0 66 66">
  <defs>
    <style>
      .cls-1 {
        fill: url(#linear-gradient-1);
        fill-rule: evenodd;
      }
    </style>

    <linearGradient id="linear-gradient-1" gradientUnits="userSpaceOnUse" x1="56.976" y1="66" x2="9.024">
      <stop offset="0" stop-color="#4cf3ce"/>
      <stop offset="1" stop-color="#f042f6"/>
    </linearGradient>
  </defs>
  <path d="M54.000,65.000 L43.411,65.000 C40.178,65.643 36.670,66.000 33.000,66.000 C29.329,66.000 25.821,65.643 22.589,65.000 L12.000,65.000 C7.581,65.000 4.000,61.418 4.000,57.000 L4.000,51.000 C4.000,50.737 4.013,50.475 4.039,50.215 C4.059,50.011 4.093,49.811 4.128,49.611 C4.137,49.560 4.141,49.508 4.152,49.457 C4.194,49.241 4.249,49.030 4.308,48.820 C4.319,48.781 4.327,48.741 4.338,48.702 C4.382,48.558 4.434,48.418 4.485,48.277 C4.530,48.151 4.573,48.024 4.623,47.899 C4.630,47.885 4.637,47.870 4.643,47.856 C7.437,41.082 19.069,36.000 33.000,36.000 C46.931,36.000 58.563,41.082 61.357,47.856 C61.363,47.871 61.370,47.885 61.376,47.899 C61.427,48.024 61.470,48.151 61.514,48.277 C61.565,48.418 61.618,48.558 61.661,48.702 C61.673,48.741 61.680,48.781 61.691,48.821 C61.751,49.030 61.806,49.241 61.848,49.457 C61.858,49.508 61.862,49.560 61.871,49.612 C61.906,49.811 61.940,50.011 61.960,50.215 C61.986,50.475 62.000,50.737 62.000,51.000 L62.000,57.000 C62.000,61.418 58.418,65.000 54.000,65.000 ZM33.999,32.000 C25.163,32.000 18.000,24.836 18.000,16.000 C18.000,7.163 25.163,-0.000 33.999,-0.000 L37.999,-0.000 C44.627,-0.000 49.999,5.372 49.999,12.000 L49.999,16.000 C49.999,24.836 42.836,32.000 33.999,32.000 ZM42.376,16.791 C41.374,16.303 40.170,16.727 39.686,17.741 C38.683,19.841 36.544,21.199 34.236,21.199 C31.995,21.199 29.949,19.957 28.896,17.958 C28.373,16.966 27.152,16.590 26.170,17.118 C25.187,17.646 24.815,18.878 25.338,19.870 C27.093,23.200 30.503,25.268 34.236,25.268 C38.082,25.268 41.646,23.007 43.316,19.507 C43.800,18.495 43.378,17.278 42.376,16.791 Z" class="cls-1"/>
</svg>
