<svg width="22" height="22" viewBox="0 0 22 22" fill="none" xmlns="http://www.w3.org/2000/svg">
<path fill-rule="evenodd" clip-rule="evenodd" d="M3.07392 3.23065C3.02541 3.47962 3 3.73684 3 3.99999V5.49981C2.39278 5.95591 2 6.68208 2 7.49999C2 8.3179 2.39278 9.04407 3 9.50018V9.99999C3 10.6229 3.07119 11.2292 3.20588 11.8111C1.35139 11.2552 0 9.53543 0 7.49999C0 5.51315 1.28762 3.82705 3.07392 3.23065ZM18.7941 11.8111C20.6486 11.2552 22 9.53543 22 7.49999C22 5.51315 20.7124 3.82706 18.9261 3.23066C18.9746 3.47962 19 3.73684 19 3.99999V5.49981C19.6072 5.95591 20 6.68208 20 7.49999C20 8.3179 19.6072 9.04407 19 9.50018V9.99999C19 10.6229 18.9288 11.2292 18.7941 11.8111Z" fill="url(#paint0_linear)"/>
<path fill-rule="evenodd" clip-rule="evenodd" d="M3 4C3 1.79086 4.79086 0 7 0H15C17.2091 0 19 1.79086 19 4V10C19 14.0796 15.9463 17.446 12 17.9381V20H16C16.5523 20 17 20.4477 17 21C17 21.5523 16.5523 22 16 22H6C5.44772 22 5 21.5523 5 21C5 20.4477 5.44772 20 6 20H10V17.9381C6.05369 17.446 3 14.0796 3 10V4ZM13.1685 11.7567C13.087 11.7567 13.0069 11.7366 12.9349 11.6981L11 10.3061L9.06471 11.6979C8.94714 11.7601 8.80968 11.7726 8.68277 11.7328C8.55599 11.6931 8.45029 11.6042 8.38956 11.4862C8.33829 11.3876 8.32071 11.2751 8.33926 11.1657L9.03793 8.92982L7.27271 7.64206C7.07489 7.44618 7.07102 7.12812 7.26423 6.92763C7.34047 6.84848 7.44096 6.79685 7.54993 6.78073L9.77053 6.77442L10.5515 4.52376C10.6338 4.352 10.8076 4.24266 10.9983 4.24254C11.1892 4.24279 11.3628 4.35212 11.4454 4.52376L12.2274 6.77575L14.4471 6.78206C14.7208 6.82048 14.9116 7.07588 14.8736 7.35212C14.858 7.46206 14.8075 7.564 14.7291 7.64206L12.9641 8.93139L13.6633 11.1676C13.7094 11.4431 13.5259 11.7045 13.2527 11.7511C13.2259 11.756 13.1987 11.7583 13.1711 11.7585L13.1685 11.7567Z" fill="url(#paint1_linear)"/>
<defs>
<linearGradient id="paint0_linear" x1="18.0012" y1="11.8101" x2="14.1638" y2="-0.0553298" gradientUnits="userSpaceOnUse">
<stop stop-color="#4CF3CE"/>
<stop offset="1" stop-color="#F042F6"/>
</linearGradient>
<linearGradient id="paint1_linear" x1="16.0918" y1="21.9973" x2="-0.566912" y2="7.38642" gradientUnits="userSpaceOnUse">
<stop stop-color="#4CF3CE"/>
<stop offset="1" stop-color="#F042F6"/>
</linearGradient>
</defs>
</svg>
