<svg width="22" height="22" viewBox="0 0 22 22" fill="none" xmlns="http://www.w3.org/2000/svg">
<path fill-rule="evenodd" clip-rule="evenodd" d="M3.07392 3.23065C3.02541 3.47962 3 3.73684 3 3.99999V5.49981C2.39278 5.95591 2 6.68208 2 7.49999C2 8.3179 2.39278 9.04407 3 9.50018V9.99999C3 10.6229 3.07119 11.2292 3.20588 11.8111C1.35139 11.2552 0 9.53543 0 7.49999C0 5.51315 1.28762 3.82705 3.07392 3.23065ZM18.7941 11.8111C20.6486 11.2552 22 9.53543 22 7.49999C22 5.51315 20.7124 3.82705 18.9261 3.23065C18.9746 3.47962 19 3.73684 19 3.99999V5.49981C19.6072 5.95591 20 6.68208 20 7.49999C20 8.3179 19.6072 9.04407 19 9.50018V9.99999C19 10.6229 18.9288 11.2292 18.7941 11.8111Z" fill="#262626"/>
<path d="M4 4C4 2.34315 5.34315 1 7 1H15C16.6569 1 18 2.34315 18 4V10C18 13.866 14.866 17 11 17C7.13401 17 4 13.866 4 10V4Z" stroke="#262626" stroke-width="2"/>
<rect x="10" y="17" width="2" height="3" fill="#262626"/>
<rect x="5" y="20" width="12" height="2" rx="1" fill="#262626"/>
</svg>
